<mxfile host="app.diagrams.net" modified="2021-04-14T10:49:46.505Z" agent="5.0 (Macintosh; Intel Mac OS X 10_15_6) AppleWebKit/605.1.15 (KHTML, like Gecko) Version/14.0.2 Safari/605.1.15" etag="yzkU0tBoDcQMuBQvjFRK" version="14.6.0" type="github">
  <diagram id="POrvhyLN4dE86ITFzkWm" name="Page-1">
    <mxGraphModel dx="928" dy="1537" grid="1" gridSize="10" guides="1" tooltips="1" connect="1" arrows="1" fold="1" page="1" pageScale="1" pageWidth="1169" pageHeight="827" math="0" shadow="0">
      <root>
        <mxCell id="0" />
        <mxCell id="1" parent="0" />
        <mxCell id="7jo65XgNDeN_nlAyi_Y8-135" value="" style="rounded=0;whiteSpace=wrap;html=1;labelBackgroundColor=#ffffff;fontSize=12;fillColor=#dae8fc;align=left;strokeColor=#6c8ebf;" vertex="1" parent="1">
          <mxGeometry x="281" y="-737" width="199" height="487" as="geometry" />
        </mxCell>
        <mxCell id="7jo65XgNDeN_nlAyi_Y8-33" value="" style="group" vertex="1" connectable="0" parent="1">
          <mxGeometry x="292.5" y="-692.5" width="191" height="451.6823529411765" as="geometry" />
        </mxCell>
        <mxCell id="7jo65XgNDeN_nlAyi_Y8-12" value="&lt;p class=&quot;MsoNormal&quot; style=&quot;margin: 0cm ; line-height: 12.3pt ; font-size: 9pt ; font-family: &amp;#34;arial&amp;#34; , sans-serif&quot;&gt;&lt;br&gt;&lt;/p&gt;" style="rounded=0;whiteSpace=wrap;html=1;align=left;" vertex="1" parent="7jo65XgNDeN_nlAyi_Y8-33">
          <mxGeometry x="-1" y="-10" width="180" height="153" as="geometry" />
        </mxCell>
        <mxCell id="7jo65XgNDeN_nlAyi_Y8-19" value="&lt;p class=&quot;MsoNormal&quot; align=&quot;center&quot; style=&quot;margin: 0cm ; line-height: 12.3pt ; font-size: 9pt ; font-family: &amp;#34;arial&amp;#34; , sans-serif&quot;&gt;&lt;span lang=&quot;EN-US&quot;&gt;Job : Static Code Analysis&lt;/span&gt;&lt;/p&gt;" style="rounded=0;whiteSpace=wrap;html=1;fontSize=12;spacing=0;" vertex="1" parent="7jo65XgNDeN_nlAyi_Y8-33">
          <mxGeometry x="6.5" y="80" width="165" height="20" as="geometry" />
        </mxCell>
        <mxCell id="7jo65XgNDeN_nlAyi_Y8-129" value="" style="group" vertex="1" connectable="0" parent="7jo65XgNDeN_nlAyi_Y8-33">
          <mxGeometry x="6.5" y="-7.5" width="70" height="23" as="geometry" />
        </mxCell>
        <mxCell id="7jo65XgNDeN_nlAyi_Y8-130" value="" style="rounded=0;whiteSpace=wrap;html=1;labelBackgroundColor=#ffffff;fontSize=14;labelBorderColor=none;strokeColor=none;" vertex="1" parent="7jo65XgNDeN_nlAyi_Y8-129">
          <mxGeometry width="70" height="20" as="geometry" />
        </mxCell>
        <mxCell id="7jo65XgNDeN_nlAyi_Y8-131" value="" style="group" vertex="1" connectable="0" parent="7jo65XgNDeN_nlAyi_Y8-129">
          <mxGeometry y="2" width="62" height="21" as="geometry" />
        </mxCell>
        <mxCell id="7jo65XgNDeN_nlAyi_Y8-132" value="Agent" style="text;html=1;strokeColor=none;fillColor=none;align=center;verticalAlign=middle;whiteSpace=wrap;rounded=0;fontSize=14;" vertex="1" parent="7jo65XgNDeN_nlAyi_Y8-131">
          <mxGeometry x="22" y="-1" width="40" height="20" as="geometry" />
        </mxCell>
        <mxCell id="7jo65XgNDeN_nlAyi_Y8-133" value="" style="pointerEvents=1;shadow=0;dashed=0;html=1;strokeColor=none;fillColor=#434445;aspect=fixed;labelPosition=center;verticalLabelPosition=bottom;verticalAlign=top;align=center;outlineConnect=0;shape=mxgraph.vvd.guest_agent_customization;fontSize=12;" vertex="1" parent="7jo65XgNDeN_nlAyi_Y8-131">
          <mxGeometry width="19.56" height="18" as="geometry" />
        </mxCell>
        <mxCell id="7jo65XgNDeN_nlAyi_Y8-1" value="&lt;p class=&quot;MsoNormal&quot; style=&quot;margin: 0cm ; line-height: 12.3pt ; font-size: 9pt ; font-family: &amp;#34;arial&amp;#34; , sans-serif&quot;&gt;&lt;br&gt;&lt;/p&gt;" style="rounded=0;whiteSpace=wrap;html=1;align=left;" vertex="1" parent="1">
          <mxGeometry x="140" y="-587" width="120" height="210" as="geometry" />
        </mxCell>
        <mxCell id="7jo65XgNDeN_nlAyi_Y8-57" value="" style="edgeStyle=orthogonalEdgeStyle;rounded=0;orthogonalLoop=1;jettySize=auto;html=1;fontSize=14;entryX=0.008;entryY=0.211;entryDx=0;entryDy=0;entryPerimeter=0;" edge="1" parent="1" source="7jo65XgNDeN_nlAyi_Y8-2" target="7jo65XgNDeN_nlAyi_Y8-1">
          <mxGeometry relative="1" as="geometry" />
        </mxCell>
        <mxCell id="7jo65XgNDeN_nlAyi_Y8-2" value="TRIGGER" style="verticalLabelPosition=bottom;shadow=0;dashed=0;align=center;html=1;verticalAlign=top;shape=mxgraph.electrical.logic_gates.schmitt_trigger;" vertex="1" parent="1">
          <mxGeometry y="-557" width="100" height="60" as="geometry" />
        </mxCell>
        <mxCell id="7jo65XgNDeN_nlAyi_Y8-55" style="edgeStyle=orthogonalEdgeStyle;rounded=0;orthogonalLoop=1;jettySize=auto;html=1;exitX=1;exitY=0.5;exitDx=0;exitDy=0;entryX=0;entryY=0.5;entryDx=0;entryDy=0;fontSize=14;" edge="1" parent="1" source="7jo65XgNDeN_nlAyi_Y8-9" target="7jo65XgNDeN_nlAyi_Y8-12">
          <mxGeometry relative="1" as="geometry" />
        </mxCell>
        <mxCell id="7jo65XgNDeN_nlAyi_Y8-9" value="BUILD" style="rounded=1;whiteSpace=wrap;html=1;fontSize=16;fillColor=#f8cecc;strokeColor=#b85450;" vertex="1" parent="1">
          <mxGeometry x="150" y="-547" width="100" height="40" as="geometry" />
        </mxCell>
        <mxCell id="7jo65XgNDeN_nlAyi_Y8-10" value="QA" style="rounded=1;whiteSpace=wrap;html=1;fontSize=16;fillColor=#ffe6cc;strokeColor=#d79b00;" vertex="1" parent="1">
          <mxGeometry x="150" y="-492" width="100" height="40" as="geometry" />
        </mxCell>
        <mxCell id="7jo65XgNDeN_nlAyi_Y8-11" value="Production" style="rounded=1;whiteSpace=wrap;html=1;fontSize=16;fillColor=#d5e8d4;strokeColor=#82b366;" vertex="1" parent="1">
          <mxGeometry x="150" y="-432" width="100" height="40" as="geometry" />
        </mxCell>
        <mxCell id="7jo65XgNDeN_nlAyi_Y8-14" value="&lt;span lang=&quot;EN-US&quot; style=&quot;font-size: 11px; font-family: arial, sans-serif;&quot;&gt;Job : Generate MDM Change List&lt;/span&gt;&lt;span style=&quot;font-size: 11px;&quot;&gt;&lt;/span&gt;" style="rounded=0;whiteSpace=wrap;html=1;fontSize=11;spacing=0;" vertex="1" parent="1">
          <mxGeometry x="299" y="-671" width="165" height="20" as="geometry" />
        </mxCell>
        <mxCell id="7jo65XgNDeN_nlAyi_Y8-17" value="&lt;p class=&quot;MsoNormal&quot; align=&quot;center&quot; style=&quot;margin: 0cm ; line-height: 12.3pt ; font-size: 9pt ; font-family: &amp;#34;arial&amp;#34; , sans-serif&quot;&gt;&lt;span lang=&quot;EN-US&quot;&gt;Job : Build and Unit Test&lt;/span&gt;&lt;/p&gt;" style="rounded=0;whiteSpace=wrap;html=1;fontSize=12;spacing=0;" vertex="1" parent="1">
          <mxGeometry x="300" y="-641" width="165" height="20" as="geometry" />
        </mxCell>
        <mxCell id="7jo65XgNDeN_nlAyi_Y8-20" value="&lt;p class=&quot;MsoNormal&quot; align=&quot;center&quot; style=&quot;margin: 0cm ; line-height: 12.3pt ; font-size: 9pt ; font-family: &amp;#34;arial&amp;#34; , sans-serif&quot;&gt;&lt;span lang=&quot;EN-US&quot;&gt;Job: Upload to Nexus&lt;/span&gt;&lt;/p&gt;" style="rounded=0;whiteSpace=wrap;html=1;fontSize=12;spacing=0;" vertex="1" parent="1">
          <mxGeometry x="298.5" y="-581" width="165" height="20" as="geometry" />
        </mxCell>
        <mxCell id="7jo65XgNDeN_nlAyi_Y8-41" value="" style="group" vertex="1" connectable="0" parent="1">
          <mxGeometry x="291.5" y="-491" width="180" height="80" as="geometry" />
        </mxCell>
        <mxCell id="7jo65XgNDeN_nlAyi_Y8-35" value="&lt;p class=&quot;MsoNormal&quot; style=&quot;margin: 0cm ; line-height: 12.3pt ; font-size: 9pt ; font-family: &amp;#34;arial&amp;#34; , sans-serif&quot;&gt;&lt;br&gt;&lt;/p&gt;" style="rounded=0;whiteSpace=wrap;html=1;align=left;" vertex="1" parent="7jo65XgNDeN_nlAyi_Y8-41">
          <mxGeometry width="180" height="80" as="geometry" />
        </mxCell>
        <mxCell id="7jo65XgNDeN_nlAyi_Y8-22" value="&lt;p class=&quot;MsoNormal&quot; align=&quot;center&quot; style=&quot;margin: 0cm ; line-height: 12.3pt ; font-size: 9pt ; font-family: &amp;#34;arial&amp;#34; , sans-serif&quot;&gt;&lt;span lang=&quot;EN-US&quot;&gt;Deploy to cloud instances&lt;/span&gt;&lt;/p&gt;" style="rounded=0;whiteSpace=wrap;html=1;fontSize=12;spacing=0;" vertex="1" parent="7jo65XgNDeN_nlAyi_Y8-41">
          <mxGeometry x="7.5" y="33" width="165" height="20" as="geometry" />
        </mxCell>
        <mxCell id="7jo65XgNDeN_nlAyi_Y8-36" value="" style="group" vertex="1" connectable="0" parent="7jo65XgNDeN_nlAyi_Y8-41">
          <mxGeometry x="1" width="70" height="23" as="geometry" />
        </mxCell>
        <mxCell id="7jo65XgNDeN_nlAyi_Y8-37" value="" style="rounded=0;whiteSpace=wrap;html=1;labelBackgroundColor=#ffffff;fontSize=14;labelBorderColor=none;strokeColor=none;" vertex="1" parent="7jo65XgNDeN_nlAyi_Y8-36">
          <mxGeometry width="70" height="20" as="geometry" />
        </mxCell>
        <mxCell id="7jo65XgNDeN_nlAyi_Y8-38" value="" style="group" vertex="1" connectable="0" parent="7jo65XgNDeN_nlAyi_Y8-36">
          <mxGeometry y="2" width="62" height="21" as="geometry" />
        </mxCell>
        <mxCell id="7jo65XgNDeN_nlAyi_Y8-39" value="Agent" style="text;html=1;strokeColor=none;fillColor=none;align=center;verticalAlign=middle;whiteSpace=wrap;rounded=0;fontSize=14;" vertex="1" parent="7jo65XgNDeN_nlAyi_Y8-38">
          <mxGeometry x="22" y="-1" width="40" height="20" as="geometry" />
        </mxCell>
        <mxCell id="7jo65XgNDeN_nlAyi_Y8-40" value="" style="pointerEvents=1;shadow=0;dashed=0;html=1;strokeColor=none;fillColor=#434445;aspect=fixed;labelPosition=center;verticalLabelPosition=bottom;verticalAlign=top;align=center;outlineConnect=0;shape=mxgraph.vvd.guest_agent_customization;fontSize=12;" vertex="1" parent="7jo65XgNDeN_nlAyi_Y8-38">
          <mxGeometry width="19.56" height="18" as="geometry" />
        </mxCell>
        <mxCell id="7jo65XgNDeN_nlAyi_Y8-42" value="" style="group" vertex="1" connectable="0" parent="1">
          <mxGeometry x="291.5" y="-347" width="180" height="80" as="geometry" />
        </mxCell>
        <mxCell id="7jo65XgNDeN_nlAyi_Y8-43" value="&lt;p class=&quot;MsoNormal&quot; style=&quot;margin: 0cm ; line-height: 12.3pt ; font-size: 9pt ; font-family: &amp;#34;arial&amp;#34; , sans-serif&quot;&gt;&lt;br&gt;&lt;/p&gt;" style="rounded=0;whiteSpace=wrap;html=1;align=left;" vertex="1" parent="7jo65XgNDeN_nlAyi_Y8-42">
          <mxGeometry width="180" height="80" as="geometry" />
        </mxCell>
        <mxCell id="7jo65XgNDeN_nlAyi_Y8-44" value="&lt;p class=&quot;MsoNormal&quot; align=&quot;center&quot; style=&quot;margin: 0cm ; line-height: 12.3pt ; font-size: 9pt ; font-family: &amp;#34;arial&amp;#34; , sans-serif&quot;&gt;Integration and Web Tests&lt;br&gt;&lt;/p&gt;" style="rounded=0;whiteSpace=wrap;html=1;fontSize=12;spacing=0;" vertex="1" parent="7jo65XgNDeN_nlAyi_Y8-42">
          <mxGeometry x="7.5" y="33" width="165" height="20" as="geometry" />
        </mxCell>
        <mxCell id="7jo65XgNDeN_nlAyi_Y8-45" value="" style="group" vertex="1" connectable="0" parent="7jo65XgNDeN_nlAyi_Y8-42">
          <mxGeometry x="1" width="70" height="23" as="geometry" />
        </mxCell>
        <mxCell id="7jo65XgNDeN_nlAyi_Y8-46" value="" style="rounded=0;whiteSpace=wrap;html=1;labelBackgroundColor=#ffffff;fontSize=14;labelBorderColor=none;strokeColor=none;" vertex="1" parent="7jo65XgNDeN_nlAyi_Y8-45">
          <mxGeometry width="70" height="20" as="geometry" />
        </mxCell>
        <mxCell id="7jo65XgNDeN_nlAyi_Y8-47" value="" style="group" vertex="1" connectable="0" parent="7jo65XgNDeN_nlAyi_Y8-45">
          <mxGeometry y="2" width="62" height="21" as="geometry" />
        </mxCell>
        <mxCell id="7jo65XgNDeN_nlAyi_Y8-48" value="Agent" style="text;html=1;strokeColor=none;fillColor=none;align=center;verticalAlign=middle;whiteSpace=wrap;rounded=0;fontSize=14;" vertex="1" parent="7jo65XgNDeN_nlAyi_Y8-47">
          <mxGeometry x="22" y="-1" width="40" height="20" as="geometry" />
        </mxCell>
        <mxCell id="7jo65XgNDeN_nlAyi_Y8-49" value="" style="pointerEvents=1;shadow=0;dashed=0;html=1;strokeColor=none;fillColor=#434445;aspect=fixed;labelPosition=center;verticalLabelPosition=bottom;verticalAlign=top;align=center;outlineConnect=0;shape=mxgraph.vvd.guest_agent_customization;fontSize=12;" vertex="1" parent="7jo65XgNDeN_nlAyi_Y8-47">
          <mxGeometry width="19.56" height="18" as="geometry" />
        </mxCell>
        <mxCell id="7jo65XgNDeN_nlAyi_Y8-51" style="edgeStyle=orthogonalEdgeStyle;rounded=0;orthogonalLoop=1;jettySize=auto;html=1;entryX=0.5;entryY=1;entryDx=0;entryDy=0;fontSize=14;endArrow=blockThin;endFill=0;endSize=9;" edge="1" parent="1" source="7jo65XgNDeN_nlAyi_Y8-43" target="7jo65XgNDeN_nlAyi_Y8-35">
          <mxGeometry relative="1" as="geometry" />
        </mxCell>
        <mxCell id="7jo65XgNDeN_nlAyi_Y8-52" value="" style="edgeStyle=orthogonalEdgeStyle;rounded=0;orthogonalLoop=1;jettySize=auto;html=1;entryX=0.5;entryY=1;entryDx=0;entryDy=0;fontSize=14;endArrow=blockThin;endFill=0;endSize=10;" edge="1" parent="1" source="7jo65XgNDeN_nlAyi_Y8-35" target="7jo65XgNDeN_nlAyi_Y8-12">
          <mxGeometry relative="1" as="geometry" />
        </mxCell>
        <mxCell id="7jo65XgNDeN_nlAyi_Y8-66" value="&lt;p class=&quot;MsoNormal&quot; align=&quot;center&quot; style=&quot;margin: 0cm ; line-height: 12.3pt ; font-size: 9pt ; font-family: &amp;#34;arial&amp;#34; , sans-serif&quot;&gt;&lt;span lang=&quot;EN-US&quot;&gt;Push to BitBucket&lt;/span&gt;&lt;/p&gt;" style="rounded=0;whiteSpace=wrap;html=1;fontSize=12;spacing=0;" vertex="1" parent="1">
          <mxGeometry y="-468" width="112.5" height="20" as="geometry" />
        </mxCell>
        <mxCell id="7jo65XgNDeN_nlAyi_Y8-97" value="" style="shape=process;whiteSpace=wrap;html=1;backgroundOutline=1;labelBackgroundColor=#ffffff;fontSize=12;align=left;fillColor=#fff2cc;strokeColor=#d6b656;" vertex="1" parent="1">
          <mxGeometry x="750" y="-523.5" width="120" height="60" as="geometry" />
        </mxCell>
        <mxCell id="7jo65XgNDeN_nlAyi_Y8-99" value="" style="shape=process;whiteSpace=wrap;html=1;backgroundOutline=1;labelBackgroundColor=#ffffff;fontSize=12;align=left;fillColor=#fff2cc;strokeColor=#d6b656;" vertex="1" parent="1">
          <mxGeometry x="750" y="-409" width="120" height="60" as="geometry" />
        </mxCell>
        <mxCell id="7jo65XgNDeN_nlAyi_Y8-3" value="Pipeline" style="text;html=1;strokeColor=none;align=center;verticalAlign=middle;whiteSpace=wrap;rounded=0;" vertex="1" parent="1">
          <mxGeometry x="170" y="-582" width="60" height="20" as="geometry" />
        </mxCell>
        <mxCell id="7jo65XgNDeN_nlAyi_Y8-107" value="" style="group" vertex="1" connectable="0" parent="1">
          <mxGeometry x="515.75" y="-827" width="210" height="580" as="geometry" />
        </mxCell>
        <mxCell id="7jo65XgNDeN_nlAyi_Y8-109" value="" style="rounded=0;whiteSpace=wrap;html=1;labelBackgroundColor=#ffffff;fontSize=12;fillColor=#dae8fc;align=left;strokeColor=#6c8ebf;" vertex="1" parent="7jo65XgNDeN_nlAyi_Y8-107">
          <mxGeometry x="-10" y="20" width="220" height="560" as="geometry" />
        </mxCell>
        <mxCell id="7jo65XgNDeN_nlAyi_Y8-60" value="" style="rounded=0;whiteSpace=wrap;html=1;labelBackgroundColor=#ffffff;fontSize=14;" vertex="1" parent="7jo65XgNDeN_nlAyi_Y8-107">
          <mxGeometry x="3.25" y="54" width="190" height="72" as="geometry" />
        </mxCell>
        <mxCell id="7jo65XgNDeN_nlAyi_Y8-5" value="Steps" style="text;html=1;strokeColor=none;fillColor=none;align=center;verticalAlign=middle;whiteSpace=wrap;rounded=0;" vertex="1" parent="7jo65XgNDeN_nlAyi_Y8-107">
          <mxGeometry x="64.25" y="20" width="60" height="20" as="geometry" />
        </mxCell>
        <mxCell id="7jo65XgNDeN_nlAyi_Y8-58" value="&lt;span lang=&quot;EN-US&quot; style=&quot;font-size: 12px ; font-family: &amp;#34;arial&amp;#34; , sans-serif&quot;&gt;Script : Validate Changelist&lt;/span&gt;&lt;span style=&quot;font-size: 12px&quot;&gt;&lt;/span&gt;" style="rounded=0;whiteSpace=wrap;html=1;fontSize=12;spacing=0;" vertex="1" parent="7jo65XgNDeN_nlAyi_Y8-107">
          <mxGeometry x="10.25" y="66" width="165" height="20" as="geometry" />
        </mxCell>
        <mxCell id="7jo65XgNDeN_nlAyi_Y8-59" value="&lt;span lang=&quot;EN-US&quot; style=&quot;font-size: 12px ; font-family: &amp;#34;arial&amp;#34; , sans-serif&quot;&gt;Script : Create Change list&lt;/span&gt;&lt;span style=&quot;font-size: 12px&quot;&gt;&lt;/span&gt;" style="rounded=0;whiteSpace=wrap;html=1;fontSize=12;spacing=0;" vertex="1" parent="7jo65XgNDeN_nlAyi_Y8-107">
          <mxGeometry x="10.25" y="96" width="165" height="20" as="geometry" />
        </mxCell>
        <mxCell id="7jo65XgNDeN_nlAyi_Y8-67" value="" style="group" vertex="1" connectable="0" parent="7jo65XgNDeN_nlAyi_Y8-107">
          <mxGeometry y="141" width="185.5" height="85" as="geometry" />
        </mxCell>
        <mxCell id="7jo65XgNDeN_nlAyi_Y8-62" value="" style="rounded=0;whiteSpace=wrap;html=1;labelBackgroundColor=#ffffff;fontSize=14;" vertex="1" parent="7jo65XgNDeN_nlAyi_Y8-67">
          <mxGeometry x="3.905263157894737" width="185.5" height="85" as="geometry" />
        </mxCell>
        <mxCell id="7jo65XgNDeN_nlAyi_Y8-63" value="&lt;span lang=&quot;EN-US&quot; style=&quot;font-size: 12px ; font-family: &amp;#34;arial&amp;#34; , sans-serif&quot;&gt;Task : Run Unit Tests (JAVA)&lt;/span&gt;&lt;span style=&quot;font-size: 12px&quot;&gt;&lt;/span&gt;" style="rounded=0;whiteSpace=wrap;html=1;fontSize=12;spacing=0;" vertex="1" parent="7jo65XgNDeN_nlAyi_Y8-67">
          <mxGeometry x="10.739473684210527" y="12" width="157.675" height="20" as="geometry" />
        </mxCell>
        <mxCell id="7jo65XgNDeN_nlAyi_Y8-64" value="&lt;span lang=&quot;EN-US&quot; style=&quot;font-size: 11px ; font-family: &amp;#34;arial&amp;#34; , sans-serif&quot;&gt;Task : Run Unit Tests (Custom Build using SIF MDM SIF)&lt;/span&gt;&lt;span style=&quot;font-size: 11px&quot;&gt;&lt;/span&gt;" style="rounded=0;whiteSpace=wrap;html=1;fontSize=11;spacing=0;" vertex="1" parent="7jo65XgNDeN_nlAyi_Y8-67">
          <mxGeometry x="9.763157894736842" y="42" width="161.0921052631579" height="33" as="geometry" />
        </mxCell>
        <mxCell id="7jo65XgNDeN_nlAyi_Y8-71" value="" style="rounded=0;whiteSpace=wrap;html=1;labelBackgroundColor=#ffffff;fontSize=14;" vertex="1" parent="7jo65XgNDeN_nlAyi_Y8-107">
          <mxGeometry x="5.25" y="245" width="190" height="45" as="geometry" />
        </mxCell>
        <mxCell id="7jo65XgNDeN_nlAyi_Y8-72" value="&lt;span lang=&quot;EN-US&quot; style=&quot;font-size: 12px ; font-family: &amp;#34;arial&amp;#34; , sans-serif&quot;&gt;Script : Sonar automated scripts&lt;/span&gt;&lt;span style=&quot;font-size: 12px&quot;&gt;&lt;/span&gt;" style="rounded=0;whiteSpace=wrap;html=1;fontSize=12;spacing=0;" vertex="1" parent="7jo65XgNDeN_nlAyi_Y8-107">
          <mxGeometry x="12.75" y="250" width="165" height="30" as="geometry" />
        </mxCell>
        <mxCell id="7jo65XgNDeN_nlAyi_Y8-81" value="" style="group" vertex="1" connectable="0" parent="7jo65XgNDeN_nlAyi_Y8-107">
          <mxGeometry x="10.25" y="370" width="190" height="190" as="geometry" />
        </mxCell>
        <mxCell id="7jo65XgNDeN_nlAyi_Y8-74" value="" style="rounded=0;whiteSpace=wrap;html=1;labelBackgroundColor=#ffffff;fontSize=14;" vertex="1" parent="7jo65XgNDeN_nlAyi_Y8-81">
          <mxGeometry width="190" height="190" as="geometry" />
        </mxCell>
        <mxCell id="7jo65XgNDeN_nlAyi_Y8-75" value="&lt;span lang=&quot;EN-US&quot; style=&quot;font-size: 12px ; font-family: &amp;#34;arial&amp;#34; , sans-serif&quot;&gt;Script : (&lt;span style=&quot;font-family: &amp;#34;arial&amp;#34; , sans-serif ; font-size: 9pt ; text-indent: -18pt&quot;&gt;SoapUI)- Web services testing&lt;/span&gt;&lt;br&gt;&lt;/span&gt;" style="rounded=0;whiteSpace=wrap;html=1;fontSize=12;spacing=0;" vertex="1" parent="7jo65XgNDeN_nlAyi_Y8-81">
          <mxGeometry x="12.5" y="10" width="165" height="40" as="geometry" />
        </mxCell>
        <mxCell id="7jo65XgNDeN_nlAyi_Y8-76" value="&lt;span lang=&quot;EN-US&quot; style=&quot;font-size: 12px ; font-family: &amp;#34;arial&amp;#34; , sans-serif&quot;&gt;Script : (&lt;span style=&quot;font-size: 9pt ; font-family: &amp;#34;arial&amp;#34; , sans-serif&quot;&gt;Postman)-&lt;/span&gt;&lt;span style=&quot;font-size: 9pt ; font-family: &amp;#34;arial&amp;#34; , sans-serif&quot;&gt;REST services testing&lt;/span&gt;&lt;br&gt;&lt;/span&gt;&lt;span style=&quot;font-size: 12px&quot;&gt;&lt;/span&gt;" style="rounded=0;whiteSpace=wrap;html=1;fontSize=12;spacing=0;" vertex="1" parent="7jo65XgNDeN_nlAyi_Y8-81">
          <mxGeometry x="12.5" y="56" width="165" height="44" as="geometry" />
        </mxCell>
        <mxCell id="7jo65XgNDeN_nlAyi_Y8-77" value="&lt;span lang=&quot;EN-US&quot; style=&quot;font-size: 12px ; font-family: &amp;#34;arial&amp;#34; , sans-serif&quot;&gt;Script : &amp;nbsp;Protector (Angular Testing)&lt;/span&gt;&lt;span style=&quot;font-size: 12px&quot;&gt;&lt;/span&gt;" style="rounded=0;whiteSpace=wrap;html=1;fontSize=12;spacing=0;" vertex="1" parent="7jo65XgNDeN_nlAyi_Y8-81">
          <mxGeometry x="12.5" y="140" width="165" height="40" as="geometry" />
        </mxCell>
        <mxCell id="7jo65XgNDeN_nlAyi_Y8-78" value="&lt;span lang=&quot;EN-US&quot; style=&quot;font-size: 12px ; font-family: &amp;#34;arial&amp;#34; , sans-serif&quot;&gt;Script : Selenium &amp;nbsp;Web testing&lt;/span&gt;&lt;span style=&quot;font-size: 12px&quot;&gt;&lt;/span&gt;" style="rounded=0;whiteSpace=wrap;html=1;fontSize=12;spacing=0;" vertex="1" parent="7jo65XgNDeN_nlAyi_Y8-81">
          <mxGeometry x="12.5" y="110" width="165" height="20" as="geometry" />
        </mxCell>
        <mxCell id="7jo65XgNDeN_nlAyi_Y8-108" style="edgeStyle=orthogonalEdgeStyle;rounded=0;orthogonalLoop=1;jettySize=auto;html=1;exitX=0.5;exitY=1;exitDx=0;exitDy=0;dashed=1;fontSize=12;endArrow=classic;endFill=1;endSize=6;strokeWidth=1;" edge="1" parent="7jo65XgNDeN_nlAyi_Y8-81" source="7jo65XgNDeN_nlAyi_Y8-75" target="7jo65XgNDeN_nlAyi_Y8-75">
          <mxGeometry relative="1" as="geometry" />
        </mxCell>
        <mxCell id="7jo65XgNDeN_nlAyi_Y8-86" value="" style="group" vertex="1" connectable="0" parent="7jo65XgNDeN_nlAyi_Y8-107">
          <mxGeometry x="5.25" y="316" width="190" height="35" as="geometry" />
        </mxCell>
        <mxCell id="7jo65XgNDeN_nlAyi_Y8-69" value="" style="rounded=0;whiteSpace=wrap;html=1;labelBackgroundColor=#ffffff;fontSize=14;" vertex="1" parent="7jo65XgNDeN_nlAyi_Y8-86">
          <mxGeometry width="190" height="35" as="geometry" />
        </mxCell>
        <mxCell id="7jo65XgNDeN_nlAyi_Y8-70" value="&lt;span lang=&quot;EN-US&quot; style=&quot;font-size: 12px ; font-family: &amp;#34;arial&amp;#34; , sans-serif&quot;&gt;Step : Task&lt;/span&gt;&lt;span style=&quot;font-size: 12px&quot;&gt;&lt;/span&gt;" style="rounded=0;whiteSpace=wrap;html=1;fontSize=12;spacing=0;" vertex="1" parent="7jo65XgNDeN_nlAyi_Y8-86">
          <mxGeometry x="7.5" y="7.5" width="165" height="20" as="geometry" />
        </mxCell>
        <mxCell id="7jo65XgNDeN_nlAyi_Y8-61" value="" style="edgeStyle=orthogonalEdgeStyle;rounded=0;orthogonalLoop=1;jettySize=auto;html=1;fontSize=14;endArrow=classic;endFill=1;endSize=6;entryX=0;entryY=0.5;entryDx=0;entryDy=0;" edge="1" parent="1" source="7jo65XgNDeN_nlAyi_Y8-14" target="7jo65XgNDeN_nlAyi_Y8-60">
          <mxGeometry relative="1" as="geometry">
            <Array as="points">
              <mxPoint x="480" y="-661" />
              <mxPoint x="480" y="-737" />
            </Array>
          </mxGeometry>
        </mxCell>
        <mxCell id="7jo65XgNDeN_nlAyi_Y8-65" style="edgeStyle=orthogonalEdgeStyle;rounded=0;orthogonalLoop=1;jettySize=auto;html=1;fontSize=12;endArrow=classic;endFill=1;endSize=6;exitX=1;exitY=0.5;exitDx=0;exitDy=0;entryX=0;entryY=0.25;entryDx=0;entryDy=0;" edge="1" parent="1" source="7jo65XgNDeN_nlAyi_Y8-17" target="7jo65XgNDeN_nlAyi_Y8-62">
          <mxGeometry relative="1" as="geometry">
            <Array as="points">
              <mxPoint x="490" y="-631" />
              <mxPoint x="490" y="-665" />
            </Array>
          </mxGeometry>
        </mxCell>
        <mxCell id="7jo65XgNDeN_nlAyi_Y8-73" style="edgeStyle=orthogonalEdgeStyle;rounded=0;orthogonalLoop=1;jettySize=auto;html=1;exitX=1;exitY=0.5;exitDx=0;exitDy=0;entryX=0;entryY=0.5;entryDx=0;entryDy=0;fontSize=12;endArrow=classic;endFill=1;endSize=6;" edge="1" parent="1" source="7jo65XgNDeN_nlAyi_Y8-19" target="7jo65XgNDeN_nlAyi_Y8-71">
          <mxGeometry relative="1" as="geometry">
            <Array as="points">
              <mxPoint x="480" y="-602" />
              <mxPoint x="480" y="-559" />
            </Array>
          </mxGeometry>
        </mxCell>
        <mxCell id="7jo65XgNDeN_nlAyi_Y8-83" style="edgeStyle=orthogonalEdgeStyle;rounded=0;orthogonalLoop=1;jettySize=auto;html=1;entryX=0;entryY=0.75;entryDx=0;entryDy=0;fontSize=12;endArrow=classic;endFill=1;endSize=6;" edge="1" parent="1" source="7jo65XgNDeN_nlAyi_Y8-35" target="7jo65XgNDeN_nlAyi_Y8-69">
          <mxGeometry relative="1" as="geometry" />
        </mxCell>
        <mxCell id="7jo65XgNDeN_nlAyi_Y8-82" style="edgeStyle=orthogonalEdgeStyle;rounded=0;orthogonalLoop=1;jettySize=auto;html=1;fontSize=12;endArrow=classic;endFill=1;endSize=6;" edge="1" parent="1" source="7jo65XgNDeN_nlAyi_Y8-44" target="7jo65XgNDeN_nlAyi_Y8-74">
          <mxGeometry relative="1" as="geometry" />
        </mxCell>
        <mxCell id="7jo65XgNDeN_nlAyi_Y8-102" value="" style="edgeStyle=orthogonalEdgeStyle;rounded=0;orthogonalLoop=1;jettySize=auto;html=1;dashed=1;fontSize=12;endArrow=classic;endFill=1;endSize=6;strokeWidth=1;" edge="1" parent="1" source="7jo65XgNDeN_nlAyi_Y8-63">
          <mxGeometry relative="1" as="geometry">
            <mxPoint x="750" y="-663.5" as="targetPoint" />
          </mxGeometry>
        </mxCell>
        <mxCell id="7jo65XgNDeN_nlAyi_Y8-98" value="" style="edgeStyle=orthogonalEdgeStyle;rounded=0;orthogonalLoop=1;jettySize=auto;html=1;dashed=1;fontSize=12;endArrow=classic;endFill=1;endSize=6;strokeWidth=1;" edge="1" parent="1" source="7jo65XgNDeN_nlAyi_Y8-70" target="7jo65XgNDeN_nlAyi_Y8-97">
          <mxGeometry relative="1" as="geometry" />
        </mxCell>
        <mxCell id="7jo65XgNDeN_nlAyi_Y8-100" value="" style="edgeStyle=orthogonalEdgeStyle;rounded=0;orthogonalLoop=1;jettySize=auto;html=1;dashed=1;fontSize=12;endArrow=classic;endFill=1;endSize=6;strokeWidth=1;" edge="1" parent="1" source="7jo65XgNDeN_nlAyi_Y8-76" target="7jo65XgNDeN_nlAyi_Y8-99">
          <mxGeometry relative="1" as="geometry" />
        </mxCell>
        <mxCell id="7jo65XgNDeN_nlAyi_Y8-101" value="" style="shape=process;whiteSpace=wrap;html=1;backgroundOutline=1;labelBackgroundColor=#ffffff;fontSize=12;align=left;fillColor=#fff2cc;strokeColor=#d6b656;" vertex="1" parent="1">
          <mxGeometry x="750" y="-691" width="120" height="60" as="geometry" />
        </mxCell>
        <mxCell id="7jo65XgNDeN_nlAyi_Y8-110" value="Publish and Build artifacts" style="text;html=1;strokeColor=none;fillColor=none;align=center;verticalAlign=middle;whiteSpace=wrap;rounded=0;" vertex="1" parent="1">
          <mxGeometry x="770" y="-670" width="80" height="20" as="geometry" />
        </mxCell>
        <mxCell id="7jo65XgNDeN_nlAyi_Y8-112" value="Azure App Service deploy" style="text;html=1;strokeColor=none;fillColor=none;align=center;verticalAlign=middle;whiteSpace=wrap;rounded=0;" vertex="1" parent="1">
          <mxGeometry x="760" y="-515" width="100" height="47" as="geometry" />
        </mxCell>
        <mxCell id="7jo65XgNDeN_nlAyi_Y8-113" value="Invoke REST API" style="text;html=1;strokeColor=none;fillColor=none;align=center;verticalAlign=middle;whiteSpace=wrap;rounded=0;" vertex="1" parent="1">
          <mxGeometry x="760" y="-402.5" width="100" height="47" as="geometry" />
        </mxCell>
        <mxCell id="7jo65XgNDeN_nlAyi_Y8-114" value="depends on" style="text;html=1;strokeColor=none;fillColor=none;align=center;verticalAlign=middle;whiteSpace=wrap;rounded=0;" vertex="1" parent="1">
          <mxGeometry x="370" y="-519.49" width="100" height="20" as="geometry" />
        </mxCell>
        <mxCell id="7jo65XgNDeN_nlAyi_Y8-115" value="depends on" style="text;html=1;strokeColor=none;fillColor=none;align=center;verticalAlign=middle;whiteSpace=wrap;rounded=0;" vertex="1" parent="1">
          <mxGeometry x="370" y="-379.99999999999994" width="100" height="20" as="geometry" />
        </mxCell>
        <mxCell id="7jo65XgNDeN_nlAyi_Y8-4" value="Stage" style="text;html=1;strokeColor=none;fillColor=none;align=center;verticalAlign=middle;whiteSpace=wrap;rounded=0;" vertex="1" parent="1">
          <mxGeometry x="360" y="-730" width="60" height="20" as="geometry" />
        </mxCell>
        <mxCell id="7jo65XgNDeN_nlAyi_Y8-136" value="&lt;u&gt;Typical Azure Pipeline&lt;/u&gt;" style="text;html=1;strokeColor=none;fillColor=none;align=center;verticalAlign=middle;whiteSpace=wrap;rounded=0;labelBackgroundColor=#ffffff;fontSize=24;fontFamily=Times New Roman;" vertex="1" parent="1">
          <mxGeometry x="30" y="-800" width="230" height="20" as="geometry" />
        </mxCell>
      </root>
    </mxGraphModel>
  </diagram>
</mxfile>
